Genre:Animation | Adventure | Comedy
Language:English
IMDb:http://www.imdb.com/title/tt1302067/
Source:IMAGINE Thx.
Subtitles:Romana



Format : MPEG-4
Format profile : Base Media
Codec ID : isom
File size : 894 MiB
Duration : 1h 12mn
Overall bit rate : 1 731 Kbps


Video
Codec ID : avc1
Codec ID/Info : Advanced Video Coding
Duration : 1h 12mn
Bit rate mode : Variable
Bit rate : 1 563 Kbps
Width : 720 pixels
Height : 480 pixels
Display aspect ratio : 3:2
Frame rate mode : Constant
Frame rate : 29.970 fps
Original frame rate : 29.000 fps
Standard : NTSC
Color space : YUV
Chroma subsampling : 4:2:0
Bit depth : 8 bits
Scan type : Progressive
Bits/(Pixel*Frame) : 0.151
Stream size : 808 MiB (90%)


Audio
ID : 1
Format : AAC
Format/Info : Advanced Audio Codec
Format version : Version 4
Format profile : LC
Codec ID : 40
Duration : 1h 12mn
Bit rate mode : Constant
Bit rate : 160 Kbps
Channel(s) : 2 channels
Channel positions : Front: L R
Sampling rate : 48.0 KHz
Stream size : 82.7 MiB (9%)
Language : English



Plot:
A documentary filmmaker travels to Jellystone Park to shoot a project and soon crosses paths with Yogi Bear, his sidekick Boo-Boo, and Ranger Smith

TRAILER:http://www.imdb.com/video/imdb/vi2698381593/

Screens:-
 
http://shareimage.org/images/rzoc6m1ux9bqk2ynj.png
 
http://shareimage.org/images/6x3tjmq3igacir2bnbyp.png
 
http://shareimage.org/images/6f48cpd273rkpujflpdq.png


Greets:

INK,CRYS,IMAGINE,LKRG,FXG,3Li,FLAWL3SS,TA,ViSiON,LU,TheFalcon007,PrisM,Noir,WBZ,LAP,Rx,Kingdom,SAFCuk009+Fabreezy,HDLiTE,TWiZTED,ExtraTorrentRG.ELEKTRI4KA,MAGNAT,CM8
And to all the other p2p grps past and present




Make sure its a real Feel-Free release